<svg width="44" height="44" viewBox="0 0 44 44" fill="none" xmlns="http://www.w3.org/2000/svg">
<g filter="url(#filter0_ii_2070_2265)">
<path d="M0 16C0 7.16344 7.16344 0 16 0H28C36.8366 0 44 7.16344 44 16V28C44 36.8366 36.8366 44 28 44H16C7.16344 44 0 36.8366 0 28V16Z" fill="url(#paint0_linear_2070_2265)"/>
<path d="M13.5146 30.4851C13.124 30.0946 13.124 29.4614 13.5146 29.0709L29.0709 13.5146C29.4614 13.124 30.0946 13.124 30.4851 13.5146C30.8757 13.9051 30.8757 14.5383 30.4851 14.9288L14.9288 30.4851C14.5383 30.8757 13.9051 30.8757 13.5146 30.4851Z" fill="white"/>
<path d="M13.5146 13.5147C13.9051 13.1242 14.5383 13.1242 14.9288 13.5147L30.4851 29.0711C30.8757 29.4616 30.8757 30.0948 30.4851 30.4853C30.0946 30.8758 29.4615 30.8758 29.0709 30.4853L13.5146 14.9289C13.1241 14.5384 13.1241 13.9052 13.5146 13.5147Z" fill="white"/>
</g>
<defs>
<filter id="filter0_ii_2070_2265" x="0" y="-4" width="44" height="52" filterUnits="userSpaceOnUse" color-interpolation-filters="sRGB">
<feFlood flood-opacity="0" result="BackgroundImageFix"/>
<feBlend mode="normal" in="SourceGraphic" in2="BackgroundImageFix" result="shape"/>
<feColorMatrix in="SourceAlpha" type="matrix" values="0 0 0 0 0 0 0 0 0 0 0 0 0 0 0 0 0 0 127 0" result="hardAlpha"/>
<feOffset dy="-4"/>
<feGaussianBlur stdDeviation="4"/>
<feComposite in2="hardAlpha" operator="arithmetic" k2="-1" k3="1"/>
<feColorMatrix type="matrix" values="0 0 0 0 0 0 0 0 0 0 0 0 0 0 0 0 0 0 0.12 0"/>
<feBlend mode="normal" in2="shape" result="effect1_innerShadow_2070_2265"/>
<feColorMatrix in="SourceAlpha" type="matrix" values="0 0 0 0 0 0 0 0 0 0 0 0 0 0 0 0 0 0 127 0" result="hardAlpha"/>
<feOffset dy="4"/>
<feGaussianBlur stdDeviation="4"/>
<feComposite in2="hardAlpha" operator="arithmetic" k2="-1" k3="1"/>
<feColorMatrix type="matrix" values="0 0 0 0 1 0 0 0 0 1 0 0 0 0 1 0 0 0 0.8 0"/>
<feBlend mode="normal" in2="effect1_innerShadow_2070_2265" result="effect2_innerShadow_2070_2265"/>
</filter>
<linearGradient id="paint0_linear_2070_2265" x1="6.68919" y1="-4.84582" x2="33.1076" y2="43.3925" gradientUnits="userSpaceOnUse">
<stop stop-color="#FFCF4A"/>
<stop offset="1" stop-color="#FFBB00"/>
</linearGradient>
</defs>
</svg>
