<svg width="374" height="242" viewBox="0 0 374 242" fill="none" xmlns="http://www.w3.org/2000/svg">
<g clip-path="url(#clip0_2110_752)">
<rect width="374" height="242" rx="20" fill="#FFF0D7"/>
<path opacity="0.2" d="M50.4478 6.66931L50.4478 18.7795L17.484 18.7802C17.1133 18.7802 16.8129 19.0795 16.8129 19.4489L16.8129 52.3289L4.67109 52.3289C4.49318 52.3289 4.32256 52.3992 4.19657 52.5249C4.07058 52.6503 3.99999 52.8205 3.99999 52.9982L4.00189 188.992C4.00189 189.362 4.30199 189.662 4.67268 189.662L16.8126 189.662L16.8126 222.55C16.8126 222.921 17.113 223.22 17.4837 223.22L50.4475 223.22L50.4475 235.331C50.4475 235.7 50.7479 236 51.1183 236L322.881 236C323.252 236 323.552 235.7 323.552 235.331L323.552 223.22L356.516 223.22C356.886 223.22 357.187 222.92 357.187 222.55L357.187 189.662L369.327 189.662C369.698 189.662 369.998 189.362 369.998 188.992L370 52.9982C370 52.6285 369.7 52.3289 369.329 52.3289L357.189 52.3289L357.189 19.4473C357.189 19.2701 357.119 19.1 356.993 18.9744C356.867 18.8484 356.696 18.7782 356.518 18.7782L323.552 18.7786L323.552 6.6693C323.552 6.48427 323.478 6.3179 323.356 6.19603C323.233 6.07414 323.067 6 322.881 6L51.1183 6.00001C50.7482 5.99969 50.4478 6.29925 50.4478 6.66931ZM311.116 32.2534C311.116 32.608 311.431 32.9224 311.787 32.9224L322.882 32.9205C323.252 32.9205 323.552 32.6212 323.552 32.2514L323.552 20.4808L332.607 20.4808L332.607 42.6284C332.607 42.9982 332.907 43.2979 333.278 43.2979L355.482 43.2979L355.482 52.3289L343.672 52.3269C343.495 52.3269 343.324 52.3974 343.198 52.523C343.072 52.6484 343.001 52.8186 343.001 52.9964L343.001 64.0645C343 64.4327 343.3 64.732 343.672 64.7339L355.847 64.7358L355.846 177.262L343.682 177.264C343.311 177.264 343.011 177.563 343.011 177.933L343.009 188.992C343.009 189.347 343.324 189.662 343.68 189.662L355.492 189.662L355.492 198.701L333.285 198.699C333.107 198.699 332.937 198.769 332.811 198.895C332.685 199.02 332.614 199.19 332.614 199.368L332.614 221.52L323.552 221.52L323.552 209.738C323.552 209.368 323.252 209.068 322.881 209.068L311.785 209.068C311.414 209.068 311.114 209.368 311.114 209.738L311.114 221.882L62.8863 221.882L62.8863 209.738C62.8863 209.368 62.5862 209.068 62.2155 209.068L51.1186 209.068C50.7483 209.068 50.4478 209.368 50.4478 209.738L50.4478 221.52L41.395 221.518L41.395 199.37C41.395 199 41.0949 198.701 40.7242 198.701L18.5179 198.699L18.5198 189.662L30.3282 189.662C30.6989 189.662 30.999 189.362 30.999 188.992L31.0009 177.933C31.0009 177.578 30.6859 177.264 30.3301 177.264L18.1548 177.264L18.1548 64.7358L30.3298 64.7358C30.7005 64.7358 31.0006 64.4364 31.0006 64.0661L31.0006 52.9979C31.0006 52.6282 30.7005 52.3286 30.3298 52.3286L18.5179 52.3286L18.5179 43.2976L40.7242 43.2994C40.9021 43.2994 41.0727 43.229 41.1987 43.1034C41.3244 42.978 41.395 42.8078 41.395 42.6301L41.395 20.4785L50.4478 20.4805L50.4478 32.2511C50.4478 32.6206 50.7482 32.9203 51.1186 32.9203L62.2155 32.9203C62.5861 32.9203 62.8862 32.6209 62.8862 32.2511L62.8862 20.1176L311.114 20.1164L311.116 32.2534ZM312.456 20.4808L322.211 20.4808L322.211 31.5824L312.458 31.5843L312.456 20.4808ZM355.482 63.3973L344.343 63.3954L344.343 53.6651L355.482 53.667L355.482 63.3973ZM355.492 188.323L344.35 188.323L344.352 178.602L355.492 178.601L355.492 188.323ZM322.211 221.52L312.455 221.52L312.455 210.407L322.211 210.407L322.211 221.52ZM61.5447 221.52L51.7894 221.52L51.7894 210.407L61.5447 210.407L61.5447 221.52ZM18.5179 178.602L29.659 178.602L29.6574 188.323L18.5201 188.323L18.5179 178.602ZM18.5179 53.667L29.659 53.667L29.659 63.397L18.5179 63.397L18.5179 53.667ZM51.7897 20.4808L61.545 20.4808L61.545 31.5824L51.7897 31.5824L51.7897 20.4808ZM40.0534 20.1179L40.0534 41.9613L18.1548 41.9594L18.1548 20.1186L40.0534 20.1179ZM5.34377 188.323L5.34218 53.6673L16.8129 53.6673L16.8129 188.323L5.34377 188.323ZM18.1548 200.037L40.0534 200.039L40.0534 221.881L18.1548 221.881L18.1548 200.037ZM322.211 234.662L51.7897 234.662L51.7897 223.22L322.211 223.22L322.211 234.662ZM333.956 221.881L333.956 200.037L355.846 200.039L355.845 221.881L333.956 221.881ZM368.658 53.667L368.656 188.323L357.187 188.323L357.189 53.667L368.658 53.667ZM355.847 41.9594L333.948 41.9594L333.948 20.1167L355.847 20.1167L355.847 41.9594ZM322.211 7.33843L322.211 18.7786L51.7894 18.7795L51.7894 7.33844L322.211 7.33843Z" fill="url(#paint0_linear_2110_752)"/>
<path d="M346.757 243.758C346.757 243.758 344.111 234.101 339.007 223.446C332.967 210.838 341.843 206.466 346.757 203.304C351.673 206.466 360.548 210.838 354.508 223.446C349.403 234.101 346.757 243.758 346.757 243.758Z" fill="url(#paint1_linear_2110_752)"/>
<path d="M346.757 244.062C346.62 244.062 346.5 243.971 346.464 243.839C346.437 243.742 343.765 234.084 338.733 223.578C332.982 211.575 340.548 206.838 345.554 203.704C345.914 203.479 346.262 203.261 346.592 203.048C346.693 202.984 346.822 202.984 346.921 203.048C347.251 203.26 347.599 203.478 347.958 203.703C352.966 206.837 360.534 211.573 354.782 223.578C349.749 234.084 347.077 243.743 347.05 243.839C347.014 243.971 346.894 244.062 346.757 244.062ZM346.757 203.665C346.474 203.845 346.18 204.03 345.876 204.22C340.766 207.419 333.766 211.802 339.281 223.315C343.39 231.894 345.934 239.912 346.757 242.668C347.58 239.912 350.124 231.894 354.233 223.315C359.75 211.8 352.749 207.418 347.636 204.218C347.333 204.029 347.039 203.845 346.757 203.665Z" fill="#FFC950"/>
<path d="M348.592 218.205C348.592 221.214 346.757 223.652 346.757 223.652C346.757 223.652 344.921 221.214 344.921 218.205C344.921 215.197 346.757 212.757 346.757 212.757C346.757 212.757 348.592 215.197 348.592 218.205Z" fill="url(#paint2_linear_2110_752)"/>
<path d="M332.038 208.255C333.919 210.835 334.971 209.997 337.15 210.849C336.043 213.248 336.252 215.832 336.558 219.17C334.417 216.594 332.737 214.618 330.257 213.704C331.195 211.56 332.53 211.41 332.038 208.255Z" fill="url(#paint3_linear_2110_752)"/>
<path d="M336.558 219.474C336.47 219.474 336.384 219.436 336.325 219.365C334.331 216.967 332.609 214.896 330.152 213.99C330.073 213.961 330.01 213.901 329.977 213.824C329.945 213.747 329.945 213.659 329.979 213.583C330.284 212.884 330.632 212.388 330.938 211.95C331.587 211.021 332.057 210.349 331.738 208.303C331.716 208.164 331.792 208.028 331.922 207.975C332.051 207.92 332.201 207.962 332.284 208.076C333.505 209.751 334.312 209.893 335.429 210.091C335.955 210.184 336.551 210.289 337.261 210.567C337.338 210.597 337.401 210.658 337.432 210.736C337.463 210.814 337.461 210.901 337.426 210.977C336.33 213.352 336.576 216.035 336.861 219.143C336.873 219.275 336.798 219.401 336.675 219.452C336.637 219.467 336.598 219.474 336.558 219.474ZM330.669 213.539C332.852 214.443 334.45 216.181 336.168 218.228C335.937 215.563 335.839 213.204 336.742 211.024C336.218 210.848 335.764 210.767 335.323 210.689C334.353 210.518 333.494 210.366 332.442 209.232C332.5 210.777 332 211.492 331.436 212.298C331.179 212.666 330.915 213.043 330.669 213.539Z" fill="#FFC950"/>
<path d="M346.756 243.759C346.756 243.759 338.057 238.801 326.914 234.876C313.729 230.232 316.912 220.865 318.151 215.153C323.863 213.913 333.231 210.73 337.875 223.916C341.799 235.059 346.756 243.759 346.756 243.759Z" fill="url(#paint4_linear_2110_752)"/>
<path d="M346.756 244.062C346.705 244.062 346.653 244.049 346.606 244.022C346.519 243.973 337.801 239.032 326.813 235.163C314.26 230.741 316.26 222.042 317.584 216.286C317.679 215.872 317.771 215.471 317.854 215.088C317.88 214.972 317.971 214.881 318.087 214.855C318.47 214.772 318.87 214.68 319.283 214.585C325.04 213.261 333.74 211.26 338.162 223.814C342.031 234.802 346.971 243.521 347.02 243.608C347.088 243.727 347.068 243.876 346.971 243.973C346.912 244.032 346.835 244.062 346.756 244.062ZM318.406 215.408C318.334 215.735 318.256 216.074 318.176 216.422C316.825 222.299 314.974 230.348 327.015 234.589C335.987 237.749 343.454 241.621 345.985 242.987C344.619 240.456 340.748 232.988 337.589 224.016C333.348 211.974 325.298 213.825 319.42 215.178C319.072 215.258 318.734 215.335 318.406 215.408Z" fill="#FFC950"/>
<path d="M329.986 224.391C332.113 226.519 332.541 229.541 332.541 229.541C332.541 229.541 329.518 229.114 327.391 226.986C325.263 224.86 324.837 221.837 324.837 221.837C324.837 221.837 327.86 222.264 329.986 224.391Z" fill="url(#paint5_linear_2110_752)"/>
<path d="M311.246 229.063C314.402 229.556 314.551 228.221 316.695 227.282C317.609 229.761 319.583 231.441 322.159 233.584C318.824 233.277 316.239 233.068 313.839 234.175C312.988 231.995 313.824 230.946 311.246 229.063Z" fill="url(#paint6_linear_2110_752)"/>
<path d="M313.838 234.48C313.8 234.48 313.761 234.473 313.725 234.458C313.647 234.426 313.586 234.365 313.555 234.287C313.277 233.577 313.172 232.98 313.079 232.454C312.881 231.338 312.738 230.531 311.066 229.309C310.953 229.227 310.911 229.077 310.964 228.948C311.018 228.818 311.153 228.741 311.292 228.764C313.339 229.082 314.01 228.614 314.94 227.964C315.378 227.658 315.873 227.311 316.572 227.005C316.649 226.971 316.736 226.971 316.813 227.004C316.89 227.037 316.95 227.1 316.979 227.178C317.885 229.635 319.955 231.357 322.352 233.351C322.455 233.436 322.49 233.578 322.439 233.701C322.388 233.824 322.267 233.895 322.13 233.888C319.026 233.601 316.345 233.355 313.965 234.452C313.925 234.471 313.882 234.48 313.838 234.48ZM312.221 229.469C313.354 230.52 313.506 231.379 313.678 232.348C313.756 232.789 313.836 233.243 314.013 233.768C316.196 232.863 318.553 232.962 321.216 233.194C319.169 231.475 317.432 229.878 316.529 227.695C316.033 227.941 315.655 228.206 315.288 228.462C314.481 229.026 313.767 229.518 312.221 229.469Z" fill="#FFC950"/>
<path d="M346.757 243.759C346.757 243.759 337.102 246.404 326.446 251.508C313.838 257.548 309.466 248.673 306.304 243.758C309.466 238.843 313.838 229.967 326.446 236.008C337.102 241.111 346.757 243.759 346.757 243.759Z" fill="url(#paint7_linear_2110_752)"/>
<path d="M318.73 253.846C312.266 253.846 309.04 248.691 306.703 244.959C306.478 244.599 306.26 244.251 306.048 243.922C305.984 243.821 305.984 243.693 306.048 243.593C306.26 243.263 306.478 242.915 306.703 242.556C309.837 237.548 314.574 229.981 326.577 235.734C337.084 240.765 346.741 243.439 346.837 243.465C346.969 243.501 347.061 243.622 347.061 243.758C347.061 243.896 346.969 244.016 346.837 244.052C346.741 244.078 337.084 246.749 326.577 251.782C323.522 253.245 320.937 253.846 318.73 253.846ZM306.665 243.757C306.845 244.039 307.029 244.333 307.218 244.636C310.419 249.749 314.8 256.75 326.315 251.233C334.894 247.124 342.911 244.581 345.667 243.758C342.911 242.935 334.894 240.391 326.315 236.282C314.8 230.765 310.419 237.767 307.219 242.878C307.029 243.181 306.845 243.475 306.665 243.757Z" fill="#FFC950"/>
<path d="M321.203 241.922C324.211 241.922 326.65 243.756 326.65 243.756C326.65 243.756 324.212 245.593 321.203 245.593C318.196 245.593 315.757 243.756 315.757 243.756C315.757 243.756 318.196 241.922 321.203 241.922Z" fill="url(#paint8_linear_2110_752)"/>
<path d="M346.757 243.759C346.757 243.759 356.412 241.112 367.068 236.008C379.675 229.968 384.048 238.843 387.21 243.758C384.048 248.671 379.675 257.548 367.068 251.508C356.414 246.403 346.757 243.759 346.757 243.759Z" fill="url(#paint9_linear_2110_752)"/>
<path d="M374.782 253.847C372.575 253.847 369.991 253.245 366.936 251.782C356.431 246.748 346.772 244.078 346.676 244.052C346.544 244.016 346.452 243.896 346.452 243.759C346.452 243.622 346.544 243.501 346.676 243.466C346.772 243.439 356.429 240.766 366.936 235.734C378.939 229.983 383.675 237.549 386.81 242.556C387.035 242.916 387.252 243.264 387.464 243.593C387.529 243.693 387.529 243.822 387.464 243.922C387.252 244.252 387.034 244.6 386.808 244.961C384.472 248.692 381.245 253.847 374.782 253.847ZM347.846 243.759C350.602 244.581 358.621 247.123 367.198 251.233C378.712 256.749 383.093 249.749 386.293 244.638C386.483 244.335 386.667 244.04 386.848 243.758C386.668 243.476 386.484 243.182 386.294 242.879C383.095 237.767 378.714 230.767 367.198 236.282C358.619 240.391 350.602 242.935 347.846 243.759Z" fill="#FFC950"/>
<path d="M372.309 245.591C369.301 245.592 366.862 243.758 366.862 243.758C366.862 243.758 369.301 241.921 372.309 241.922C375.317 241.92 377.758 243.757 377.758 243.757C377.758 243.757 375.317 245.592 372.309 245.591Z" fill="url(#paint10_linear_2110_752)"/>
<path d="M382.259 229.04C379.679 230.92 380.516 231.971 379.664 234.151C377.268 233.044 374.682 233.252 371.347 233.559C373.92 231.418 375.895 229.738 376.81 227.259C378.954 228.195 379.104 229.531 382.259 229.04Z" fill="url(#paint11_linear_2110_752)"/>
<path d="M379.665 234.455C379.621 234.455 379.578 234.445 379.537 234.427C377.16 233.329 374.479 233.576 371.375 233.862C371.235 233.872 371.117 233.798 371.066 233.675C371.015 233.552 371.05 233.41 371.153 233.325C373.549 231.331 375.619 229.608 376.525 227.153C376.554 227.075 376.615 227.012 376.691 226.979C376.769 226.946 376.856 226.947 376.932 226.98C377.632 227.285 378.129 227.632 378.567 227.939C379.496 228.588 380.166 229.055 382.213 228.739C382.353 228.717 382.487 228.794 382.54 228.923C382.594 229.053 382.552 229.203 382.439 229.285C380.764 230.505 380.621 231.312 380.423 232.43C380.33 232.956 380.225 233.551 379.948 234.261C379.917 234.339 379.856 234.401 379.778 234.432C379.742 234.447 379.703 234.455 379.665 234.455ZM375.24 233.009C376.743 233.009 378.149 233.186 379.49 233.742C379.667 233.218 379.747 232.764 379.825 232.324C379.997 231.354 380.149 230.494 381.284 229.443C379.744 229.501 379.025 229.001 378.219 228.437C377.851 228.18 377.473 227.915 376.976 227.67C376.072 229.851 374.335 231.449 372.289 233.168C373.315 233.079 374.297 233.009 375.24 233.009Z" fill="#FFC950"/>
<path d="M346.756 243.758C346.756 243.758 351.713 235.059 355.638 223.915C360.281 210.731 369.649 213.913 375.361 215.154C376.6 220.863 379.783 230.233 366.598 234.875C355.454 238.801 346.756 243.758 346.756 243.758Z" fill="url(#paint12_linear_2110_752)"/>
<path d="M346.756 244.063C346.678 244.063 346.6 244.032 346.541 243.973C346.444 243.877 346.424 243.727 346.492 243.608C346.541 243.521 351.481 234.802 355.352 223.815C359.772 211.258 368.474 213.26 374.231 214.587C374.644 214.682 375.043 214.773 375.426 214.857C375.542 214.882 375.633 214.973 375.658 215.089C375.741 215.473 375.834 215.873 375.929 216.287C377.252 222.043 379.252 230.742 366.7 235.162C355.711 239.032 346.993 243.973 346.906 244.023C346.859 244.049 346.808 244.063 346.756 244.063ZM367.515 214.191C363.138 214.191 358.71 216.107 355.925 224.016C352.765 232.989 348.894 240.457 347.527 242.988C350.058 241.621 357.525 237.749 366.498 234.588C378.538 230.349 376.687 222.3 375.336 216.423C375.256 216.075 375.178 215.736 375.106 215.409C374.779 215.337 374.442 215.259 374.095 215.179C372.077 214.715 369.803 214.191 367.515 214.191Z" fill="#FFC950"/>
<path d="M366.122 226.987C363.995 229.114 360.975 229.542 360.975 229.542C360.975 229.542 361.4 226.519 363.527 224.392C365.653 222.264 368.678 221.837 368.678 221.837C368.678 221.837 368.251 224.86 366.122 226.987Z" fill="url(#paint13_linear_2110_752)"/>
<path d="M361.454 208.246C360.958 211.4 362.293 211.552 363.232 213.694C360.756 214.608 359.073 216.584 356.931 219.159C357.237 215.824 357.447 213.24 356.341 210.839C358.519 209.986 359.569 210.825 361.454 208.246Z" fill="url(#paint14_linear_2110_752)"/>
<path d="M356.931 219.463C356.892 219.463 356.853 219.455 356.815 219.44C356.692 219.389 356.616 219.264 356.629 219.131C356.914 216.026 357.16 213.343 356.065 210.967C356.03 210.891 356.028 210.803 356.059 210.726C356.09 210.648 356.152 210.587 356.23 210.556C356.941 210.278 357.538 210.172 358.064 210.079C359.18 209.881 359.987 209.738 361.209 208.066C361.292 207.953 361.442 207.912 361.571 207.965C361.7 208.018 361.776 208.154 361.755 208.293C361.433 210.34 361.902 211.012 362.553 211.942C362.858 212.379 363.205 212.875 363.511 213.572C363.544 213.649 363.545 213.736 363.512 213.813C363.479 213.891 363.416 213.951 363.337 213.98C360.88 214.887 359.158 216.957 357.165 219.354C357.106 219.425 357.02 219.463 356.931 219.463ZM356.749 211.014C357.652 213.195 357.554 215.553 357.322 218.217C359.04 216.171 360.637 214.434 362.82 213.529C362.574 213.035 362.31 212.657 362.054 212.29C361.49 211.483 360.99 210.767 361.049 209.222C359.997 210.354 359.139 210.506 358.17 210.677C357.728 210.756 357.274 210.836 356.749 211.014Z" fill="#FFC950"/>
<path d="M349.562 236.522C349.56 239.25 346.798 243.088 346.798 243.088C346.798 243.088 344 239.3 344.002 236.572C344.007 231.994 349.568 231.941 349.562 236.522Z" fill="url(#paint15_linear_2110_752)"/>
<path d="M343.626 236.657C345.556 238.588 346.315 243.255 346.315 243.255C346.315 243.255 341.658 242.555 339.73 240.624C336.497 237.384 340.391 233.415 343.626 236.657Z" fill="url(#paint16_linear_2110_752)"/>
<path d="M339.521 240.95C342.251 240.952 346.089 243.714 346.089 243.714C346.089 243.714 342.3 246.513 339.573 246.51C334.994 246.505 334.941 240.946 339.521 240.95Z" fill="url(#paint17_linear_2110_752)"/>
<path d="M353.991 246.563C351.264 246.562 347.426 243.799 347.426 243.799C347.426 243.799 351.212 241.002 353.942 241.004C358.518 241.009 358.572 246.569 353.991 246.563Z" fill="url(#paint18_linear_2110_752)"/>
<path d="M353.857 240.626C351.927 242.554 347.259 243.315 347.259 243.315C347.259 243.315 347.958 238.659 349.89 236.729C353.129 233.497 357.1 237.39 353.857 240.626Z" fill="url(#paint19_linear_2110_752)"/>
<path d="M348.915 243.758C348.915 244.949 347.948 245.916 346.756 245.916C345.565 245.916 344.599 244.949 344.599 243.758C344.599 242.566 345.565 241.6 346.756 241.6C347.948 241.6 348.915 242.566 348.915 243.758Z" fill="url(#paint20_radial_2110_752)"/>
<path d="M346.756 246.003C345.519 246.003 344.512 244.996 344.512 243.758C344.512 242.52 345.519 241.513 346.756 241.513C347.994 241.513 349.002 242.52 349.002 243.758C349.002 244.996 347.994 246.003 346.756 246.003ZM346.756 241.687C345.615 241.687 344.685 242.616 344.685 243.758C344.685 244.9 345.614 245.829 346.756 245.829C347.898 245.829 348.828 244.9 348.828 243.758C348.828 242.616 347.898 241.687 346.756 241.687Z" fill="#FFC950"/>
<path opacity="0.7" d="M25.6657 64.0003C37.6313 64.0003 47.3314 54.3003 47.3314 42.3346C47.3314 30.369 37.6313 20.6689 25.6657 20.6689C13.7001 20.6689 4 30.369 4 42.3346C4 54.3003 13.7001 64.0003 25.6657 64.0003Z" fill="url(#paint21_radial_2110_752)"/>
<path d="M29.9138 -65H29.5039V12.0546H29.9138V-65Z" fill="url(#paint22_linear_2110_752)"/>
<path d="M23.0137 46.563L25.2479 49.78C25.2479 50.8647 34.0603 51.0587 34.0603 49.78L36.2939 46.563H23.0137Z" fill="url(#paint23_linear_2110_752)"/>
<path d="M29.6532 18.152C27.9189 18.152 26.5078 16.741 26.5078 15.0067C26.5078 13.2723 27.9189 11.8613 29.6532 11.8613C31.3875 11.8613 32.7985 13.2723 32.7985 15.0067C32.7985 16.741 31.3875 18.152 29.6532 18.152ZM29.6532 12.2082C28.1101 12.2082 26.8547 13.4636 26.8547 15.0067C26.8547 16.5497 28.1101 17.8051 29.6532 17.8051C31.1962 17.8051 32.4516 16.5497 32.4516 15.0067C32.4516 13.4636 31.1962 12.2082 29.6532 12.2082Z" fill="url(#paint24_linear_2110_752)"/>
<path d="M47.092 30.3804C47.092 35.7263 42.8674 42.0353 37.8366 45.7639C37.1348 46.2842 36.4214 46.7509 35.6987 47.1586C35.6987 47.1611 35.6956 47.1611 35.6927 47.1611C35.0328 47.5391 34.3664 47.863 33.7004 48.1304C33.3437 48.2764 32.9841 48.4041 32.6272 48.5142C32.3718 48.5945 32.1131 48.6627 31.8604 48.7222C31.6315 48.7787 31.4052 48.8233 31.1796 48.8621C30.9771 48.898 30.7751 48.9244 30.5759 48.9455C30.4242 48.9633 30.2722 48.975 30.1236 48.9809C29.9664 48.9929 29.8086 48.9957 29.6539 48.9957C29.4993 48.9957 29.3418 48.9929 29.1843 48.9809C29.0357 48.9749 28.8838 48.9633 28.7325 48.9455C28.53 48.9245 28.3278 48.8981 28.126 48.8621C27.9 48.8233 27.677 48.7788 27.4479 48.7222C27.1952 48.6627 26.9365 48.5945 26.6808 48.5142C26.3242 48.404 25.9643 48.2763 25.6075 48.1304C24.9415 47.8631 24.2754 47.5391 23.6152 47.1611C23.6127 47.1611 23.6097 47.1611 23.6097 47.1586C22.8869 46.7509 22.1735 46.2842 21.472 45.7639C16.4382 42.0353 12.2158 35.7262 12.2158 30.3804C12.2158 25.9114 15.1686 22.5785 19.0784 20.4764C19.081 20.4703 19.0841 20.4674 19.0872 20.4703C19.7173 20.1314 20.3715 19.8254 21.0407 19.5515C21.9712 19.1741 22.9316 18.8557 23.9008 18.6003C24.3171 18.4902 24.7335 18.3919 25.1526 18.3057C25.6049 18.2136 26.0565 18.1333 26.5087 18.0679C26.7702 18.0291 27.0318 17.9936 27.2934 17.9668C27.656 17.9252 28.0159 17.8923 28.3727 17.872C28.5333 17.8601 28.6908 17.854 28.8513 17.8449C29.1221 17.836 29.3893 17.8301 29.654 17.8301C29.9188 17.8301 30.1861 17.836 30.4567 17.8449C30.6173 17.8539 30.7751 17.8601 30.9357 17.872C31.2925 17.8924 31.6521 17.9252 32.015 17.9668C32.2735 17.9935 32.5323 18.0264 32.7937 18.0679C33.2458 18.1306 33.7004 18.2108 34.1557 18.3057C34.5715 18.3919 34.9911 18.4902 35.4044 18.6003C36.3739 18.853 37.3312 19.1711 38.2586 19.5485C38.9305 19.8253 39.5876 20.1313 40.2207 20.4702C40.224 20.4673 40.2271 20.4702 40.2302 20.4763C44.14 22.5785 47.092 25.9113 47.092 30.3804Z" fill="url(#paint25_linear_2110_752)"/>
<path d="M19.9639 43.2654C16.842 39.1114 14.9781 34.2174 14.9781 30.171C14.9781 25.1998 17.651 21.691 21.0405 19.5504C20.3713 19.8241 19.7171 20.1302 19.087 20.4691C19.0839 20.4662 19.0809 20.4691 19.0782 20.4752C16.8869 22.3484 14.5322 25.4614 14.5322 30.171C14.5322 35.4781 17.5886 41.6658 21.4718 45.7627C22.1732 46.283 22.8866 46.7497 23.6094 47.1574C22.3605 46.1226 21.1268 44.8111 19.9639 43.2654ZM40.2301 20.4752C40.227 20.4691 40.224 20.4662 40.2206 20.4691C39.5875 20.1302 38.9304 19.8242 38.2585 19.5474C41.6539 21.688 44.33 25.1968 44.33 30.1711C44.33 34.2176 42.466 39.1115 39.3438 43.2654C38.1816 44.8112 36.9475 46.1227 35.6986 47.1574C36.4213 46.7497 37.1348 46.283 37.8366 45.7627C41.7194 41.6658 44.7761 35.4781 44.7761 30.171C44.7761 25.4614 42.4212 22.3484 40.2301 20.4752Z" fill="url(#paint26_linear_2110_752)"/>
<path d="M19.0341 30.1717C19.0341 24.0732 21.9446 20.1813 25.153 18.3052C24.7339 18.3914 24.3176 18.4896 23.9012 18.5997C21.0054 20.7314 18.5879 24.5429 18.5879 30.1717C18.5879 36.6442 21.9181 44.4282 25.6079 48.1298C25.9647 48.2759 26.3246 48.4036 26.6811 48.5136C22.834 45.2995 19.0341 36.8704 19.0341 30.1717ZM35.405 18.5997C34.9917 18.4896 34.5721 18.3914 34.1563 18.3052C37.3643 20.1813 40.2724 24.0733 40.2724 30.1717C40.2724 36.8704 36.4753 45.2995 32.6277 48.5136C32.9846 48.4035 33.3441 48.2758 33.7009 48.1298C37.3912 44.4282 40.7182 36.6443 40.7182 30.1717C40.7183 24.5402 38.3008 20.7314 35.405 18.5997Z" fill="url(#paint27_linear_2110_752)"/>
<path d="M23.0917 30.1723C23.0917 23.8838 25.1253 19.742 27.2928 17.9668C27.0313 17.9935 26.7698 18.0291 26.5082 18.0679C24.4623 20.0631 22.6455 24.0383 22.6455 30.1723C22.6455 34.2872 23.5047 39.2584 24.9471 43.4716C25.3933 44.7678 26.2998 47.1467 27.4475 48.7223C27.6766 48.7789 27.8996 48.8235 28.1255 48.8622C25.7439 46.0375 23.0917 37.6259 23.0917 30.1723ZM32.7933 18.0679C32.5319 18.0264 32.2732 17.9936 32.0147 17.9668C34.1822 19.7419 36.2158 23.8838 36.2158 30.1723C36.2158 37.6259 33.5635 46.0375 31.1793 48.8622C31.4049 48.8234 31.6312 48.7789 31.86 48.7222C33.0076 47.1466 33.9145 44.7677 34.3576 43.4715C35.8026 39.2584 36.6616 34.2871 36.6616 30.1722C36.6616 24.0354 34.8418 20.0601 32.7933 18.0679Z" fill="url(#paint28_linear_2110_752)"/>
<path d="M27.1471 30.1715C27.1471 23.4104 28.042 19.4646 28.8506 17.8442C28.69 17.8532 28.5325 17.8594 28.372 17.8712C27.4352 19.9105 26.7012 24.2012 26.7012 30.1715C26.7012 36.3827 27.5664 45.5343 28.732 48.9448C28.8833 48.9626 29.0352 48.9743 29.1837 48.9802C28.2948 46.3015 27.1471 37.8813 27.1471 30.1715ZM30.9351 17.8712C30.7745 17.8594 30.6167 17.8533 30.4561 17.8442C31.2655 19.4646 32.1602 23.4104 32.1602 30.1715C32.1602 37.8813 31.0123 46.3015 30.1231 48.9802C30.2716 48.9742 30.4236 48.9626 30.5754 48.9448C31.7407 45.5343 32.606 36.3828 32.606 30.1715C32.606 24.2012 31.8718 19.9104 30.9351 17.8712Z" fill="url(#paint29_linear_2110_752)"/>
<path d="M36.7988 18.8644C36.7988 19.7898 22.5059 19.7898 22.5059 18.8644C22.5059 16.3448 24.353 16.6197 24.353 16.6197C24.353 16.6197 24.3494 16.6051 24.3494 16.5799C24.3422 16.5401 24.3385 16.4677 24.353 16.3774C24.4145 15.9943 24.7434 15.7158 25.1303 15.7158H34.1744C34.5576 15.7158 34.8865 15.9905 34.9516 16.3665C34.966 16.4641 34.9625 16.5364 34.9552 16.5798C34.9552 16.6051 34.9516 16.6196 34.9516 16.6196C34.9516 16.6196 36.7988 16.3449 36.7988 18.8644Z" fill="url(#paint30_linear_2110_752)"/>
<path d="M34.9558 16.5799C32.2122 16.8618 27.0937 16.8618 24.3501 16.5799C24.3428 16.5401 24.3392 16.4677 24.3537 16.3774C24.4152 15.9943 24.7441 15.7158 25.1309 15.7158H34.1751C34.5583 15.7158 34.8872 15.9905 34.9523 16.3665C34.9667 16.4641 34.9631 16.5364 34.9558 16.5799Z" fill="url(#paint31_linear_2110_752)"/>
<path d="M28.2532 33.8662C25.2255 41.1783 20.6781 36.6301 27.9894 33.6015C20.678 36.6301 20.678 30.1985 27.9894 33.2272C20.678 30.1985 25.2255 25.651 28.2532 32.9628C25.2255 25.6511 31.6561 25.6511 28.6282 32.9628C31.6562 25.6511 36.2037 30.1989 28.892 33.2272C36.2037 30.1989 36.2037 36.6301 28.892 33.6015C36.2037 36.6301 31.6562 41.1784 28.6282 33.8662C31.6562 41.1784 25.2255 41.1784 28.2532 33.8662Z" fill="url(#paint32_linear_2110_752)"/>
<path d="M18.465 27.1315C16.4852 31.9134 13.5104 28.9392 18.2928 26.9584C13.5105 28.9392 13.5105 24.7329 18.2928 26.7137C13.5105 24.7329 16.4852 21.7586 18.465 26.5405C16.4852 21.7586 20.6903 21.7586 18.7104 26.5405C20.6904 21.7586 23.6648 24.7329 18.8828 26.7137C23.6648 24.7329 23.6648 28.9392 18.8828 26.9584C23.6648 28.9392 20.6904 31.9134 18.7104 27.1315C20.6904 31.9134 16.4852 31.9134 18.465 27.1315Z" fill="url(#paint33_linear_2110_752)"/>
<path d="M37.0596 40.4926C35.0797 45.2747 32.1053 42.3003 36.8874 40.3197C32.1053 42.3004 32.1053 38.0938 36.8874 40.0746C32.1053 38.0938 35.0797 35.1199 37.0596 39.9019C35.0797 35.1199 39.2848 35.1199 37.305 39.9019C39.2848 35.1199 42.2596 38.0942 37.4775 40.0746C42.2596 38.0942 42.2596 42.3004 37.4775 40.3197C42.2596 42.3004 39.2848 45.2747 37.305 40.4926C39.2848 45.2747 35.0796 45.2747 37.0596 40.4926Z" fill="url(#paint34_linear_2110_752)"/>
</g>
<defs>
<linearGradient id="paint0_linear_2110_752" x1="421.469" y1="563.569" x2="-37.8465" y2="-19.1529" gradientUnits="userSpaceOnUse">
<stop stop-color="#E9C156"/>
<stop offset="0.0289" stop-color="#CA9E44"/>
<stop offset="0.0625" stop-color="#AC7D32"/>
<stop offset="0.0948" stop-color="#966525"/>
<stop offset="0.1246" stop-color="#89571E"/>
<stop offset="0.1498" stop-color="#85521B"/>
<stop offset="0.2392" stop-color="#B07B29"/>
<stop offset="0.3342" stop-color="#E1AB39"/>
<stop offset="0.6572" stop-color="#E1AB39"/>
<stop offset="0.7027" stop-color="#C69130"/>
<stop offset="0.8019" stop-color="#915D1F"/>
<stop offset="0.8502" stop-color="#7C4918"/>
<stop offset="0.8704" stop-color="#8E5D22"/>
<stop offset="0.9305" stop-color="#BF933E"/>
<stop offset="0.9755" stop-color="#DDB44F"/>
<stop offset="1" stop-color="#E9C156"/>
</linearGradient>
<linearGradient id="paint1_linear_2110_752" x1="346.758" y1="238.623" x2="346.758" y2="208.911" gradientUnits="userSpaceOnUse">
<stop offset="0.1114" stop-color="#5F0101"/>
<stop offset="0.3717" stop-color="#8C0101"/>
<stop offset="0.6626" stop-color="#BA0101"/>
<stop offset="0.8094" stop-color="#CB0101"/>
</linearGradient>
<linearGradient id="paint2_linear_2110_752" x1="346.756" y1="211.376" x2="346.756" y2="233.697" gradientUnits="userSpaceOnUse">
<stop stop-color="#845B16"/>
<stop offset="0.0858" stop-color="#946E26"/>
<stop offset="0.2594" stop-color="#BE9E51"/>
<stop offset="0.5" stop-color="#FFEB94"/>
<stop offset="0.609" stop-color="#E4CB78"/>
<stop offset="1" stop-color="#845B16"/>
</linearGradient>
<linearGradient id="paint3_linear_2110_752" x1="331.63" y1="207.887" x2="337.107" y2="219.481" gradientUnits="userSpaceOnUse">
<stop offset="0.1114" stop-color="#5F0101"/>
<stop offset="0.3717" stop-color="#8C0101"/>
<stop offset="0.6626" stop-color="#BA0101"/>
<stop offset="0.8094" stop-color="#CB0101"/>
</linearGradient>
<linearGradient id="paint4_linear_2110_752" x1="343.126" y1="240.127" x2="322.116" y2="219.117" gradientUnits="userSpaceOnUse">
<stop offset="0.1114" stop-color="#5F0101"/>
<stop offset="0.3717" stop-color="#8C0101"/>
<stop offset="0.6626" stop-color="#BA0101"/>
<stop offset="0.8094" stop-color="#CB0101"/>
</linearGradient>
<linearGradient id="paint5_linear_2110_752" x1="323.861" y1="220.861" x2="339.642" y2="236.643" gradientUnits="userSpaceOnUse">
<stop stop-color="#845B16"/>
<stop offset="0.0858" stop-color="#946E26"/>
<stop offset="0.2594" stop-color="#BE9E51"/>
<stop offset="0.5" stop-color="#FFEB94"/>
<stop offset="0.609" stop-color="#E4CB78"/>
<stop offset="1" stop-color="#845B16"/>
</linearGradient>
<linearGradient id="paint6_linear_2110_752" x1="310.697" y1="229.091" x2="322.767" y2="233.416" gradientUnits="userSpaceOnUse">
<stop offset="0.1114" stop-color="#5F0101"/>
<stop offset="0.3717" stop-color="#8C0101"/>
<stop offset="0.6626" stop-color="#BA0101"/>
<stop offset="0.8094" stop-color="#CB0101"/>
</linearGradient>
<linearGradient id="paint7_linear_2110_752" x1="341.621" y1="243.758" x2="311.911" y2="243.758" gradientUnits="userSpaceOnUse">
<stop offset="0.1114" stop-color="#5F0101"/>
<stop offset="0.3717" stop-color="#8C0101"/>
<stop offset="0.6626" stop-color="#BA0101"/>
<stop offset="0.8094" stop-color="#CB0101"/>
</linearGradient>
<linearGradient id="paint8_linear_2110_752" x1="314.377" y1="243.757" x2="336.693" y2="243.757" gradientUnits="userSpaceOnUse">
<stop stop-color="#845B16"/>
<stop offset="0.0858" stop-color="#946E26"/>
<stop offset="0.2594" stop-color="#BE9E51"/>
<stop offset="0.5" stop-color="#FFEB94"/>
<stop offset="0.609" stop-color="#E4CB78"/>
<stop offset="1" stop-color="#845B16"/>
</linearGradient>
<linearGradient id="paint9_linear_2110_752" x1="351.892" y1="243.758" x2="381.603" y2="243.758" gradientUnits="userSpaceOnUse">
<stop offset="0.1114" stop-color="#5F0101"/>
<stop offset="0.3717" stop-color="#8C0101"/>
<stop offset="0.6626" stop-color="#BA0101"/>
<stop offset="0.8094" stop-color="#CB0101"/>
</linearGradient>
<linearGradient id="paint10_linear_2110_752" x1="379.139" y1="243.757" x2="356.818" y2="243.757" gradientUnits="userSpaceOnUse">
<stop stop-color="#845B16"/>
<stop offset="0.0858" stop-color="#946E26"/>
<stop offset="0.2594" stop-color="#BE9E51"/>
<stop offset="0.5" stop-color="#FFEB94"/>
<stop offset="0.609" stop-color="#E4CB78"/>
<stop offset="1" stop-color="#845B16"/>
</linearGradient>
<linearGradient id="paint11_linear_2110_752" x1="382.627" y1="228.631" x2="371.035" y2="234.107" gradientUnits="userSpaceOnUse">
<stop offset="0.1114" stop-color="#5F0101"/>
<stop offset="0.3717" stop-color="#8C0101"/>
<stop offset="0.6626" stop-color="#BA0101"/>
<stop offset="0.8094" stop-color="#CB0101"/>
</linearGradient>
<linearGradient id="paint12_linear_2110_752" x1="350.387" y1="240.127" x2="371.396" y2="219.117" gradientUnits="userSpaceOnUse">
<stop offset="0.1114" stop-color="#5F0101"/>
<stop offset="0.3717" stop-color="#8C0101"/>
<stop offset="0.6626" stop-color="#BA0101"/>
<stop offset="0.8094" stop-color="#CB0101"/>
</linearGradient>
<linearGradient id="paint13_linear_2110_752" x1="369.654" y1="220.86" x2="353.871" y2="236.643" gradientUnits="userSpaceOnUse">
<stop stop-color="#845B16"/>
<stop offset="0.0858" stop-color="#946E26"/>
<stop offset="0.2594" stop-color="#BE9E51"/>
<stop offset="0.5" stop-color="#FFEB94"/>
<stop offset="0.609" stop-color="#E4CB78"/>
<stop offset="1" stop-color="#845B16"/>
</linearGradient>
<linearGradient id="paint14_linear_2110_752" x1="361.424" y1="207.696" x2="357.099" y2="219.767" gradientUnits="userSpaceOnUse">
<stop offset="0.1114" stop-color="#5F0101"/>
<stop offset="0.3717" stop-color="#8C0101"/>
<stop offset="0.6626" stop-color="#BA0101"/>
<stop offset="0.8094" stop-color="#CB0101"/>
</linearGradient>
<linearGradient id="paint15_linear_2110_752" x1="343.982" y1="238.064" x2="349.253" y2="238.132" gradientUnits="userSpaceOnUse">
<stop stop-color="#845B16"/>
<stop offset="0.1716" stop-color="#946E26"/>
<stop offset="0.5189" stop-color="#BE9E51"/>
<stop offset="1" stop-color="#FFEB94"/>
</linearGradient>
<linearGradient id="paint16_linear_2110_752" x1="341.133" y1="241.836" x2="344.762" y2="237.181" gradientUnits="userSpaceOnUse">
<stop stop-color="#845B16"/>
<stop offset="0.1716" stop-color="#946E26"/>
<stop offset="0.5189" stop-color="#BE9E51"/>
<stop offset="1" stop-color="#FFEB94"/>
</linearGradient>
<linearGradient id="paint17_linear_2110_752" x1="341.064" y1="246.514" x2="341.133" y2="241.243" gradientUnits="userSpaceOnUse">
<stop stop-color="#845B16"/>
<stop offset="0.1716" stop-color="#946E26"/>
<stop offset="0.5189" stop-color="#BE9E51"/>
<stop offset="1" stop-color="#FFEB94"/>
</linearGradient>
<linearGradient id="paint18_linear_2110_752" x1="352.413" y1="240.951" x2="352.413" y2="246.496" gradientUnits="userSpaceOnUse">
<stop stop-color="#845B16"/>
<stop offset="0.1716" stop-color="#946E26"/>
<stop offset="0.5189" stop-color="#BE9E51"/>
<stop offset="1" stop-color="#FFEB94"/>
</linearGradient>
<linearGradient id="paint19_linear_2110_752" x1="348.823" y1="237.699" x2="353.136" y2="242.286" gradientUnits="userSpaceOnUse">
<stop stop-color="#845B16"/>
<stop offset="0.1716" stop-color="#946E26"/>
<stop offset="0.5189" stop-color="#BE9E51"/>
<stop offset="1" stop-color="#FFEB94"/>
</linearGradient>
<radialGradient id="paint20_radial_2110_752" cx="0" cy="0" r="1" gradientUnits="userSpaceOnUse" gradientTransform="translate(346.757 243.758) scale(2.15806 2.15804)">
<stop stop-color="#A90101"/>
<stop offset="1" stop-color="#440101"/>
</radialGradient>
<radialGradient id="paint21_radial_2110_752" cx="0" cy="0" r="1" gradientUnits="userSpaceOnUse" gradientTransform="translate(25.6657 42.3346) scale(21.6657 21.6657)">
<stop stop-color="#A80002"/>
<stop offset="0.995" stop-color="white" stop-opacity="0"/>
</radialGradient>
<linearGradient id="paint22_linear_2110_752" x1="44.0516" y1="-69.5008" x2="19.0498" y2="5.50476" gradientUnits="userSpaceOnUse">
<stop stop-color="#E9C156"/>
<stop offset="0.0289" stop-color="#CA9E44"/>
<stop offset="0.0625" stop-color="#AC7D32"/>
<stop offset="0.0948" stop-color="#966525"/>
<stop offset="0.1246" stop-color="#89571E"/>
<stop offset="0.1498" stop-color="#85521B"/>
<stop offset="0.2392" stop-color="#B07B29"/>
<stop offset="0.3342" stop-color="#E1AB39"/>
<stop offset="0.341" stop-color="#E3B141"/>
<stop offset="0.378" stop-color="#EDCD66"/>
<stop offset="0.4149" stop-color="#F5E384"/>
<stop offset="0.4512" stop-color="#FBF299"/>
<stop offset="0.4867" stop-color="#FEFCA6"/>
<stop offset="0.5203" stop-color="#FFFFAA"/>
<stop offset="0.5412" stop-color="#FDFAA3"/>
<stop offset="0.5714" stop-color="#F8EC90"/>
<stop offset="0.6073" stop-color="#F0D470"/>
<stop offset="0.6471" stop-color="#E4B445"/>
<stop offset="0.6572" stop-color="#E1AB39"/>
<stop offset="0.7027" stop-color="#C69130"/>
<stop offset="0.8019" stop-color="#915D1F"/>
<stop offset="0.8502" stop-color="#7C4918"/>
<stop offset="0.8704" stop-color="#8E5D22"/>
<stop offset="0.9305" stop-color="#BF933E"/>
<stop offset="0.9755" stop-color="#DDB44F"/>
<stop offset="1" stop-color="#E9C156"/>
</linearGradient>
<linearGradient id="paint23_linear_2110_752" x1="23.0136" y1="48.6153" x2="36.2938" y2="48.6153" gradientUnits="userSpaceOnUse">
<stop stop-color="#E9C156"/>
<stop offset="0.0289" stop-color="#CA9E44"/>
<stop offset="0.0625" stop-color="#AC7D32"/>
<stop offset="0.0948" stop-color="#966525"/>
<stop offset="0.1246" stop-color="#89571E"/>
<stop offset="0.1498" stop-color="#85521B"/>
<stop offset="0.2392" stop-color="#B07B29"/>
<stop offset="0.3342" stop-color="#E1AB39"/>
<stop offset="0.341" stop-color="#E3B141"/>
<stop offset="0.378" stop-color="#EDCD66"/>
<stop offset="0.4149" stop-color="#F5E384"/>
<stop offset="0.4512" stop-color="#FBF299"/>
<stop offset="0.4867" stop-color="#FEFCA6"/>
<stop offset="0.5203" stop-color="#FFFFAA"/>
<stop offset="0.5412" stop-color="#FDFAA3"/>
<stop offset="0.5714" stop-color="#F8EC90"/>
<stop offset="0.6073" stop-color="#F0D470"/>
<stop offset="0.6471" stop-color="#E4B445"/>
<stop offset="0.6572" stop-color="#E1AB39"/>
<stop offset="0.7027" stop-color="#C69130"/>
<stop offset="0.8019" stop-color="#915D1F"/>
<stop offset="0.8502" stop-color="#7C4918"/>
<stop offset="0.8704" stop-color="#8E5D22"/>
<stop offset="0.9305" stop-color="#BF933E"/>
<stop offset="0.9755" stop-color="#DDB44F"/>
<stop offset="1" stop-color="#E9C156"/>
</linearGradient>
<linearGradient id="paint24_linear_2110_752" x1="26.5078" y1="15.0066" x2="32.7985" y2="15.0066" gradientUnits="userSpaceOnUse">
<stop stop-color="#E9C156"/>
<stop offset="0.0289" stop-color="#CA9E44"/>
<stop offset="0.0625" stop-color="#AC7D32"/>
<stop offset="0.0948" stop-color="#966525"/>
<stop offset="0.1246" stop-color="#89571E"/>
<stop offset="0.1498" stop-color="#85521B"/>
<stop offset="0.2392" stop-color="#B07B29"/>
<stop offset="0.3342" stop-color="#E1AB39"/>
<stop offset="0.341" stop-color="#E3B141"/>
<stop offset="0.378" stop-color="#EDCD66"/>
<stop offset="0.4149" stop-color="#F5E384"/>
<stop offset="0.4512" stop-color="#FBF299"/>
<stop offset="0.4867" stop-color="#FEFCA6"/>
<stop offset="0.5203" stop-color="#FFFFAA"/>
<stop offset="0.5412" stop-color="#FDFAA3"/>
<stop offset="0.5714" stop-color="#F8EC90"/>
<stop offset="0.6073" stop-color="#F0D470"/>
<stop offset="0.6471" stop-color="#E4B445"/>
<stop offset="0.6572" stop-color="#E1AB39"/>
<stop offset="0.7027" stop-color="#C69130"/>
<stop offset="0.8019" stop-color="#915D1F"/>
<stop offset="0.8502" stop-color="#7C4918"/>
<stop offset="0.8704" stop-color="#8E5D22"/>
<stop offset="0.9305" stop-color="#BF933E"/>
<stop offset="0.9755" stop-color="#DDB44F"/>
<stop offset="1" stop-color="#E9C156"/>
</linearGradient>
<linearGradient id="paint25_linear_2110_752" x1="29.6539" y1="47.676" x2="29.6539" y2="20.4854" gradientUnits="userSpaceOnUse">
<stop offset="0.1114" stop-color="#5F0101"/>
<stop offset="0.3717" stop-color="#8C0101"/>
<stop offset="0.6626" stop-color="#BA0101"/>
<stop offset="0.8094" stop-color="#CB0101"/>
</linearGradient>
<linearGradient id="paint26_linear_2110_752" x1="29.6542" y1="60.099" x2="29.6542" y2="26.6212" gradientUnits="userSpaceOnUse">
<stop stop-color="#A80002"/>
<stop offset="0.2897" stop-color="#BE1C16"/>
<stop offset="0.9126" stop-color="#F7634A"/>
<stop offset="1" stop-color="#FF6E52"/>
</linearGradient>
<linearGradient id="paint27_linear_2110_752" x1="29.6531" y1="60.0996" x2="29.6531" y2="26.622" gradientUnits="userSpaceOnUse">
<stop stop-color="#A80002"/>
<stop offset="0.2897" stop-color="#BE1C16"/>
<stop offset="0.9126" stop-color="#F7634A"/>
<stop offset="1" stop-color="#FF6E52"/>
</linearGradient>
<linearGradient id="paint28_linear_2110_752" x1="29.6536" y1="60.1002" x2="29.6536" y2="26.6226" gradientUnits="userSpaceOnUse">
<stop stop-color="#A80002"/>
<stop offset="0.2897" stop-color="#BE1C16"/>
<stop offset="0.9126" stop-color="#F7634A"/>
<stop offset="1" stop-color="#FF6E52"/>
</linearGradient>
<linearGradient id="paint29_linear_2110_752" x1="29.6536" y1="60.0995" x2="29.6536" y2="26.6219" gradientUnits="userSpaceOnUse">
<stop stop-color="#A80002"/>
<stop offset="0.2897" stop-color="#BE1C16"/>
<stop offset="0.9126" stop-color="#F7634A"/>
<stop offset="1" stop-color="#FF6E52"/>
</linearGradient>
<linearGradient id="paint30_linear_2110_752" x1="22.5059" y1="17.6372" x2="36.7988" y2="17.6372" gradientUnits="userSpaceOnUse">
<stop stop-color="#E9C156"/>
<stop offset="0.0289" stop-color="#CA9E44"/>
<stop offset="0.0625" stop-color="#AC7D32"/>
<stop offset="0.0948" stop-color="#966525"/>
<stop offset="0.1246" stop-color="#89571E"/>
<stop offset="0.1498" stop-color="#85521B"/>
<stop offset="0.2392" stop-color="#B07B29"/>
<stop offset="0.3342" stop-color="#E1AB39"/>
<stop offset="0.341" stop-color="#E3B141"/>
<stop offset="0.378" stop-color="#EDCD66"/>
<stop offset="0.4149" stop-color="#F5E384"/>
<stop offset="0.4512" stop-color="#FBF299"/>
<stop offset="0.4867" stop-color="#FEFCA6"/>
<stop offset="0.5203" stop-color="#FFFFAA"/>
<stop offset="0.5412" stop-color="#FDFAA3"/>
<stop offset="0.5714" stop-color="#F8EC90"/>
<stop offset="0.6073" stop-color="#F0D470"/>
<stop offset="0.6471" stop-color="#E4B445"/>
<stop offset="0.6572" stop-color="#E1AB39"/>
<stop offset="0.7027" stop-color="#C69130"/>
<stop offset="0.8019" stop-color="#915D1F"/>
<stop offset="0.8502" stop-color="#7C4918"/>
<stop offset="0.8704" stop-color="#8E5D22"/>
<stop offset="0.9305" stop-color="#BF933E"/>
<stop offset="0.9755" stop-color="#DDB44F"/>
<stop offset="1" stop-color="#E9C156"/>
</linearGradient>
<linearGradient id="paint31_linear_2110_752" x1="24.3438" y1="16.2536" x2="34.9622" y2="16.2536" gradientUnits="userSpaceOnUse">
<stop stop-color="#E9C156"/>
<stop offset="0.0289" stop-color="#CA9E44"/>
<stop offset="0.0625" stop-color="#AC7D32"/>
<stop offset="0.0948" stop-color="#966525"/>
<stop offset="0.1246" stop-color="#89571E"/>
<stop offset="0.1498" stop-color="#85521B"/>
<stop offset="0.2392" stop-color="#B07B29"/>
<stop offset="0.3342" stop-color="#E1AB39"/>
<stop offset="0.341" stop-color="#E3B141"/>
<stop offset="0.378" stop-color="#EDCD66"/>
<stop offset="0.4149" stop-color="#F5E384"/>
<stop offset="0.4512" stop-color="#FBF299"/>
<stop offset="0.4867" stop-color="#FEFCA6"/>
<stop offset="0.5203" stop-color="#FFFFAA"/>
<stop offset="0.5412" stop-color="#FDFAA3"/>
<stop offset="0.5714" stop-color="#F8EC90"/>
<stop offset="0.6073" stop-color="#F0D470"/>
<stop offset="0.6471" stop-color="#E4B445"/>
<stop offset="0.6572" stop-color="#E1AB39"/>
<stop offset="0.7027" stop-color="#C69130"/>
<stop offset="0.8019" stop-color="#915D1F"/>
<stop offset="0.8502" stop-color="#7C4918"/>
<stop offset="0.8704" stop-color="#8E5D22"/>
<stop offset="0.9305" stop-color="#BF933E"/>
<stop offset="0.9755" stop-color="#DDB44F"/>
<stop offset="1" stop-color="#E9C156"/>
</linearGradient>
<linearGradient id="paint32_linear_2110_752" x1="25.8867" y1="42.7798" x2="32.6494" y2="17.983" gradientUnits="userSpaceOnUse">
<stop stop-color="#E9C156"/>
<stop offset="0.0137" stop-color="#CFA549"/>
<stop offset="0.0377" stop-color="#A87B34"/>
<stop offset="0.061" stop-color="#885924"/>
<stop offset="0.0831" stop-color="#724118"/>
<stop offset="0.1036" stop-color="#653311"/>
<stop offset="0.1209" stop-color="#602E0F"/>
<stop offset="0.1685" stop-color="#784517"/>
<stop offset="0.2684" stop-color="#B5812B"/>
<stop offset="0.3342" stop-color="#E1AB39"/>
<stop offset="0.341" stop-color="#E3B141"/>
<stop offset="0.378" stop-color="#EDCD66"/>
<stop offset="0.4149" stop-color="#F5E384"/>
<stop offset="0.4512" stop-color="#FBF299"/>
<stop offset="0.4867" stop-color="#FEFCA6"/>
<stop offset="0.5203" stop-color="#FFFFAA"/>
<stop offset="0.5412" stop-color="#FDFAA3"/>
<stop offset="0.5714" stop-color="#F8EC90"/>
<stop offset="0.6073" stop-color="#F0D470"/>
<stop offset="0.6471" stop-color="#E4B445"/>
<stop offset="0.6572" stop-color="#E1AB39"/>
<stop offset="0.6998" stop-color="#C48F30"/>
<stop offset="0.7878" stop-color="#8E5B1E"/>
<stop offset="0.8537" stop-color="#6D3A13"/>
<stop offset="0.8895" stop-color="#602E0F"/>
<stop offset="0.9056" stop-color="#643311"/>
<stop offset="0.9242" stop-color="#724118"/>
<stop offset="0.9441" stop-color="#875823"/>
<stop offset="0.9649" stop-color="#A57933"/>
<stop offset="0.9861" stop-color="#CCA247"/>
<stop offset="1" stop-color="#E9C156"/>
</linearGradient>
<linearGradient id="paint33_linear_2110_752" x1="11.1371" y1="22.8099" x2="44.1311" y2="40.639" gradientUnits="userSpaceOnUse">
<stop stop-color="#E9C156"/>
<stop offset="0.0137" stop-color="#CFA549"/>
<stop offset="0.0377" stop-color="#A87B34"/>
<stop offset="0.061" stop-color="#885924"/>
<stop offset="0.0831" stop-color="#724118"/>
<stop offset="0.1036" stop-color="#653311"/>
<stop offset="0.1209" stop-color="#602E0F"/>
<stop offset="0.1685" stop-color="#784517"/>
<stop offset="0.2684" stop-color="#B5812B"/>
<stop offset="0.3342" stop-color="#E1AB39"/>
<stop offset="0.341" stop-color="#E3B141"/>
<stop offset="0.378" stop-color="#EDCD66"/>
<stop offset="0.4149" stop-color="#F5E384"/>
<stop offset="0.4512" stop-color="#FBF299"/>
<stop offset="0.4867" stop-color="#FEFCA6"/>
<stop offset="0.5203" stop-color="#FFFFAA"/>
<stop offset="0.5412" stop-color="#FDFAA3"/>
<stop offset="0.5714" stop-color="#F8EC90"/>
<stop offset="0.6073" stop-color="#F0D470"/>
<stop offset="0.6471" stop-color="#E4B445"/>
<stop offset="0.6572" stop-color="#E1AB39"/>
<stop offset="0.6998" stop-color="#C48F30"/>
<stop offset="0.7878" stop-color="#8E5B1E"/>
<stop offset="0.8537" stop-color="#6D3A13"/>
<stop offset="0.8895" stop-color="#602E0F"/>
<stop offset="0.9056" stop-color="#643311"/>
<stop offset="0.9242" stop-color="#724118"/>
<stop offset="0.9441" stop-color="#875823"/>
<stop offset="0.9649" stop-color="#A57933"/>
<stop offset="0.9861" stop-color="#CCA247"/>
<stop offset="1" stop-color="#E9C156"/>
</linearGradient>
<linearGradient id="paint34_linear_2110_752" x1="46.2093" y1="46.4924" x2="7.27219" y2="19.3389" gradientUnits="userSpaceOnUse">
<stop stop-color="#E9C156"/>
<stop offset="0.0137" stop-color="#CFA549"/>
<stop offset="0.0377" stop-color="#A87B34"/>
<stop offset="0.061" stop-color="#885924"/>
<stop offset="0.0831" stop-color="#724118"/>
<stop offset="0.1036" stop-color="#653311"/>
<stop offset="0.1209" stop-color="#602E0F"/>
<stop offset="0.1685" stop-color="#784517"/>
<stop offset="0.2684" stop-color="#B5812B"/>
<stop offset="0.3342" stop-color="#E1AB39"/>
<stop offset="0.341" stop-color="#E3B141"/>
<stop offset="0.378" stop-color="#EDCD66"/>
<stop offset="0.4149" stop-color="#F5E384"/>
<stop offset="0.4512" stop-color="#FBF299"/>
<stop offset="0.4867" stop-color="#FEFCA6"/>
<stop offset="0.5203" stop-color="#FFFFAA"/>
<stop offset="0.5412" stop-color="#FDFAA3"/>
<stop offset="0.5714" stop-color="#F8EC90"/>
<stop offset="0.6073" stop-color="#F0D470"/>
<stop offset="0.6471" stop-color="#E4B445"/>
<stop offset="0.6572" stop-color="#E1AB39"/>
<stop offset="0.6998" stop-color="#C48F30"/>
<stop offset="0.7878" stop-color="#8E5B1E"/>
<stop offset="0.8537" stop-color="#6D3A13"/>
<stop offset="0.8895" stop-color="#602E0F"/>
<stop offset="0.9056" stop-color="#643311"/>
<stop offset="0.9242" stop-color="#724118"/>
<stop offset="0.9441" stop-color="#875823"/>
<stop offset="0.9649" stop-color="#A57933"/>
<stop offset="0.9861" stop-color="#CCA247"/>
<stop offset="1" stop-color="#E9C156"/>
</linearGradient>
<clipPath id="clip0_2110_752">
<rect width="374" height="242" rx="20" fill="white"/>
</clipPath>
</defs>
</svg>
