<svg width="44" height="44" viewBox="0 0 44 44" fill="none" xmlns="http://www.w3.org/2000/svg">
<g filter="url(#filter0_ii_2002_719)">
<path d="M0 16C0 7.16344 7.16344 0 16 0H28C36.8366 0 44 7.16344 44 16V28C44 36.8366 36.8366 44 28 44H16C7.16344 44 0 36.8366 0 28V16Z" fill="url(#paint0_linear_2002_719)"/>
<g clip-path="url(#clip0_2002_719)">
<mask id="mask0_2002_719" style="mask-type:luminance" maskUnits="userSpaceOnUse" x="10" y="10" width="24" height="24">
<path d="M34 10H10V34H34V10Z" fill="white"/>
</mask>
<g mask="url(#mask0_2002_719)">
<path d="M22 32C27.51 32 32 27.51 32 22C32 16.49 27.51 12 22 12C16.49 12 12 16.49 12 22C12 27.51 16.49 32 22 32ZM22.75 26C22.75 26.41 22.41 26.75 22 26.75C21.59 26.75 21.25 26.41 21.25 26V21C21.25 20.59 21.59 20.25 22 20.25C22.41 20.25 22.75 20.59 22.75 21V26ZM21.08 17.62C21.13 17.49 21.2 17.39 21.29 17.29C21.39 17.2 21.5 17.13 21.62 17.08C21.74 17.03 21.87 17 22 17C22.13 17 22.26 17.03 22.38 17.08C22.5 17.13 22.61 17.2 22.71 17.29C22.8 17.39 22.87 17.49 22.92 17.62C22.97 17.74 23 17.87 23 18C23 18.13 22.97 18.26 22.92 18.38C22.87 18.5 22.8 18.61 22.71 18.71C22.61 18.8 22.5 18.87 22.38 18.92C22.14 19.02 21.86 19.02 21.62 18.92C21.5 18.87 21.39 18.8 21.29 18.71C21.2 18.61 21.13 18.5 21.08 18.38C21.03 18.26 21 18.13 21 18C21 17.87 21.03 17.74 21.08 17.62Z" fill="white"/>
</g>
</g>
</g>
<defs>
<filter id="filter0_ii_2002_719" x="0" y="-4" width="44" height="52" filterUnits="userSpaceOnUse" color-interpolation-filters="sRGB">
<feFlood flood-opacity="0" result="BackgroundImageFix"/>
<feBlend mode="normal" in="SourceGraphic" in2="BackgroundImageFix" result="shape"/>
<feColorMatrix in="SourceAlpha" type="matrix" values="0 0 0 0 0 0 0 0 0 0 0 0 0 0 0 0 0 0 127 0" result="hardAlpha"/>
<feOffset dy="-4"/>
<feGaussianBlur stdDeviation="4"/>
<feComposite in2="hardAlpha" operator="arithmetic" k2="-1" k3="1"/>
<feColorMatrix type="matrix" values="0 0 0 0 0 0 0 0 0 0 0 0 0 0 0 0 0 0 0.12 0"/>
<feBlend mode="normal" in2="shape" result="effect1_innerShadow_2002_719"/>
<feColorMatrix in="SourceAlpha" type="matrix" values="0 0 0 0 0 0 0 0 0 0 0 0 0 0 0 0 0 0 127 0" result="hardAlpha"/>
<feOffset dy="4"/>
<feGaussianBlur stdDeviation="4"/>
<feComposite in2="hardAlpha" operator="arithmetic" k2="-1" k3="1"/>
<feColorMatrix type="matrix" values="0 0 0 0 1 0 0 0 0 1 0 0 0 0 1 0 0 0 0.8 0"/>
<feBlend mode="normal" in2="effect1_innerShadow_2002_719" result="effect2_innerShadow_2002_719"/>
</filter>
<linearGradient id="paint0_linear_2002_719" x1="6.68919" y1="-4.84582" x2="33.1076" y2="43.3925" gradientUnits="userSpaceOnUse">
<stop stop-color="#FFCF4A"/>
<stop offset="1" stop-color="#FFBB00"/>
</linearGradient>
<clipPath id="clip0_2002_719">
<rect width="24" height="24" fill="white" transform="translate(10 10)"/>
</clipPath>
</defs>
</svg>
