<svg width="374" height="647" viewBox="0 0 374 647" fill="none" xmlns="http://www.w3.org/2000/svg">
<g clip-path="url(#clip0_2078_709)">
<rect y="8" width="24" height="8" rx="4" fill="url(#paint0_linear_2078_709)"/>
<rect x="350" y="8" width="24" height="8" rx="4" fill="url(#paint1_linear_2078_709)"/>
<rect x="12" width="350" height="24" rx="12" fill="url(#paint2_linear_2078_709)"/>
<mask id="path-4-outside-1_2078_709" maskUnits="userSpaceOnUse" x="24" y="24" width="326" height="599" fill="black">
<rect fill="white" x="24" y="24" width="326" height="599"/>
<path d="M28 24H346V623H28V24Z"/>
</mask>
<path d="M28 24H346V623H28V24Z" fill="#FFF0D7"/>
<path d="M346 24H342V623H346H350V24H346ZM28 623H32V24H28H24V623H28Z" fill="#950001" mask="url(#path-4-outside-1_2078_709)"/>
<mask id="path-6-outside-2_2078_709" maskUnits="userSpaceOnUse" x="33" y="24" width="308" height="599" fill="black">
<rect fill="white" x="33" y="24" width="308" height="599"/>
<path d="M36 24H338V623H36V24Z"/>
</mask>
<path d="M338 24H335V623H338H341V24H338ZM36 623H39V24H36H33V623H36Z" fill="#FFC500" mask="url(#path-6-outside-2_2078_709)"/>
<rect y="631" width="24" height="8" rx="4" fill="url(#paint3_linear_2078_709)"/>
<rect x="350" y="631" width="24" height="8" rx="4" fill="url(#paint4_linear_2078_709)"/>
<rect x="12" y="623" width="350" height="24" rx="12" fill="url(#paint5_linear_2078_709)"/>
</g>
<defs>
<linearGradient id="paint0_linear_2078_709" x1="12" y1="16" x2="12" y2="8" gradientUnits="userSpaceOnUse">
<stop stop-color="#D54D15"/>
<stop offset="0.5" stop-color="#FCB62F"/>
<stop offset="0.65" stop-color="#FFD665"/>
<stop offset="0.8" stop-color="#FCB62F"/>
<stop offset="1" stop-color="#D54D15"/>
</linearGradient>
<linearGradient id="paint1_linear_2078_709" x1="362" y1="16" x2="362" y2="8" gradientUnits="userSpaceOnUse">
<stop stop-color="#D54D15"/>
<stop offset="0.5" stop-color="#FCB62F"/>
<stop offset="0.65" stop-color="#FFD665"/>
<stop offset="0.8" stop-color="#FCB62F"/>
<stop offset="1" stop-color="#D54D15"/>
</linearGradient>
<linearGradient id="paint2_linear_2078_709" x1="187" y1="0" x2="187" y2="24" gradientUnits="userSpaceOnUse">
<stop stop-color="#750000"/>
<stop offset="0.35" stop-color="#DE0003"/>
<stop offset="1" stop-color="#750000"/>
</linearGradient>
<linearGradient id="paint3_linear_2078_709" x1="12" y1="639" x2="12" y2="631" gradientUnits="userSpaceOnUse">
<stop stop-color="#D54D15"/>
<stop offset="0.5" stop-color="#FCB62F"/>
<stop offset="0.65" stop-color="#FFD665"/>
<stop offset="0.8" stop-color="#FCB62F"/>
<stop offset="1" stop-color="#D54D15"/>
</linearGradient>
<linearGradient id="paint4_linear_2078_709" x1="362" y1="639" x2="362" y2="631" gradientUnits="userSpaceOnUse">
<stop stop-color="#D54D15"/>
<stop offset="0.5" stop-color="#FCB62F"/>
<stop offset="0.65" stop-color="#FFD665"/>
<stop offset="0.8" stop-color="#FCB62F"/>
<stop offset="1" stop-color="#D54D15"/>
</linearGradient>
<linearGradient id="paint5_linear_2078_709" x1="187" y1="623" x2="187" y2="647" gradientUnits="userSpaceOnUse">
<stop stop-color="#750000"/>
<stop offset="0.35" stop-color="#DE0003"/>
<stop offset="1" stop-color="#750000"/>
</linearGradient>
<clipPath id="clip0_2078_709">
<rect width="374" height="647" fill="white"/>
</clipPath>
</defs>
</svg>
