<svg width="44" height="44" viewBox="0 0 44 44" fill="none" xmlns="http://www.w3.org/2000/svg">
<g filter="url(#filter0_ii_2110_48)">
<path d="M0 16C0 7.16344 7.16344 0 16 0H28C36.8366 0 44 7.16344 44 16V28C44 36.8366 36.8366 44 28 44H16C7.16344 44 0 36.8366 0 28V16Z" fill="url(#paint0_linear_2110_48)"/>
<g clip-path="url(#clip0_2110_48)">
<mask id="mask0_2110_48" style="mask-type:luminance" maskUnits="userSpaceOnUse" x="10" y="10" width="24" height="24">
<path d="M34 10H10V34H34V10Z" fill="white"/>
</mask>
<g mask="url(#mask0_2110_48)">
<path d="M32.5295 23.4197L31.0795 21.9697L32.4795 20.5697C32.7695 20.2797 32.7695 19.7997 32.4795 19.5097C32.1895 19.2197 31.7095 19.2197 31.4195 19.5097L30.0195 20.9097L28.5695 19.4597C28.2795 19.1697 27.7995 19.1697 27.5095 19.4597C27.2195 19.7497 27.2195 20.2297 27.5095 20.5197L28.9595 21.9697L27.4695 23.4597C27.1795 23.7497 27.1795 24.2297 27.4695 24.5197C27.6195 24.6697 27.8095 24.7397 27.9995 24.7397C28.1895 24.7397 28.3795 24.6697 28.5295 24.5197L30.0195 23.0297L31.4695 24.4797C31.6195 24.6297 31.8095 24.6997 31.9995 24.6997C32.1895 24.6997 32.3795 24.6297 32.5295 24.4797C32.8195 24.1897 32.8195 23.7197 32.5295 23.4197Z" fill="white"/>
<path d="M24.02 13.7797C22.9 13.1597 21.47 13.3197 20.01 14.2297L17.09 16.0597C16.89 16.1797 16.66 16.2497 16.43 16.2497H15.5H15C12.58 16.2497 11.25 17.5797 11.25 19.9997V23.9997C11.25 26.4197 12.58 27.7497 15 27.7497H15.5H16.43C16.66 27.7497 16.89 27.8197 17.09 27.9397L20.01 29.7697C20.89 30.3197 21.75 30.5897 22.55 30.5897C23.07 30.5897 23.57 30.4697 24.02 30.2197C25.13 29.5997 25.75 28.3097 25.75 26.5897V17.4097C25.75 15.6897 25.13 14.3997 24.02 13.7797Z" fill="white"/>
</g>
</g>
</g>
<defs>
<filter id="filter0_ii_2110_48" x="0" y="-4" width="44" height="52" filterUnits="userSpaceOnUse" color-interpolation-filters="sRGB">
<feFlood flood-opacity="0" result="BackgroundImageFix"/>
<feBlend mode="normal" in="SourceGraphic" in2="BackgroundImageFix" result="shape"/>
<feColorMatrix in="SourceAlpha" type="matrix" values="0 0 0 0 0 0 0 0 0 0 0 0 0 0 0 0 0 0 127 0" result="hardAlpha"/>
<feOffset dy="-4"/>
<feGaussianBlur stdDeviation="4"/>
<feComposite in2="hardAlpha" operator="arithmetic" k2="-1" k3="1"/>
<feColorMatrix type="matrix" values="0 0 0 0 0 0 0 0 0 0 0 0 0 0 0 0 0 0 0.12 0"/>
<feBlend mode="normal" in2="shape" result="effect1_innerShadow_2110_48"/>
<feColorMatrix in="SourceAlpha" type="matrix" values="0 0 0 0 0 0 0 0 0 0 0 0 0 0 0 0 0 0 127 0" result="hardAlpha"/>
<feOffset dy="4"/>
<feGaussianBlur stdDeviation="4"/>
<feComposite in2="hardAlpha" operator="arithmetic" k2="-1" k3="1"/>
<feColorMatrix type="matrix" values="0 0 0 0 1 0 0 0 0 1 0 0 0 0 1 0 0 0 0.8 0"/>
<feBlend mode="normal" in2="effect1_innerShadow_2110_48" result="effect2_innerShadow_2110_48"/>
</filter>
<linearGradient id="paint0_linear_2110_48" x1="6.68919" y1="-4.84582" x2="33.1076" y2="43.3925" gradientUnits="userSpaceOnUse">
<stop stop-color="#FFCF4A"/>
<stop offset="1" stop-color="#FFBB00"/>
</linearGradient>
<clipPath id="clip0_2110_48">
<rect width="24" height="24" fill="white" transform="translate(10 10)"/>
</clipPath>
</defs>
</svg>
